<svg width="457" height="737" viewBox="0 0 457 737" fill="none" xmlns="http://www.w3.org/2000/svg">
<path d="M219.1 732.828C195.1 721.628 192.1 719.528 192.1 714.228C192.1 712.228 189.2 710.028 186.4 709.928C185.2 709.928 184 709.328 183.8 708.728C183.5 708.028 183.2 708.928 183.2 710.728C183.1 714.528 182.9 714.528 178.2 711.728C165.3 703.928 158.1 698.628 158.1 696.928C158.1 695.928 157.2 694.728 156.1 694.428C155 694.128 154.1 693.428 154.1 692.928C154.1 692.528 153.2 691.928 152.1 691.628C150.9 691.328 150.1 690.228 150.1 689.128C150.1 687.928 149.7 686.728 149.1 686.428C148.6 686.128 148.1 683.828 148.1 681.428C148.1 676.728 149 675.928 154.4 675.928C156.2 675.928 159.1 675.028 160.9 673.928C166 670.828 168.8 671.428 177.9 677.428C184.3 681.728 186.1 683.528 186.1 685.328C186.1 687.828 188.2 688.928 193.2 688.928C194.6 688.928 200 691.228 205.2 694.028C216.3 700.128 226.7 704.928 228.7 704.928C232.3 704.928 263.4 687.828 278.6 677.528C315.9 652.228 342.3 621.928 361.7 582.428C377.3 550.628 386 518.428 391.3 473.428C392.7 461.128 392.8 409.628 391.4 401.428L390.6 396.528L377.4 394.828C335.4 389.328 298.2 377.028 269.7 359.128C259.2 352.528 245.2 341.228 242.6 337.328C240.4 333.928 240.4 260.228 242.6 251.528C244.5 244.128 247.8 238.628 253.6 232.928C256.1 230.528 258.1 228.028 258.1 227.428C258.1 225.828 228.7 156.928 228 156.928C227.7 156.928 226.1 160.328 224.5 164.428L221.6 172.028L218.1 171.728C215.3 171.528 214.5 170.928 214.3 169.228C214.1 167.928 213.6 166.928 213.1 166.928C212.6 166.928 211.9 165.328 211.5 163.428C211.2 161.528 210.3 159.928 209.6 159.928C208.1 159.928 207.1 157.728 207.1 154.428C207.1 150.528 208.2 148.928 210.7 148.928C214.3 148.928 220.1 142.728 220.1 138.928C220.1 137.028 220.6 135.928 221.5 135.928C223.7 135.928 224.1 127.328 224.2 77.4279C224.2 36.1279 224 30.3279 222.7 29.3279C221.8 28.7279 221.1 26.8279 221.1 25.0279C221.1 23.0279 220.6 21.9279 219.7 21.9279C217.9 21.9279 226.3 0.527901 228.3 0.127901C229.6 -0.0720993 244.4 36.1279 245.6 42.6279C246.5 47.1279 244.5 53.4279 241.1 57.3279C239.4 59.1279 238.1 61.2279 238.1 61.8279C238.1 63.5279 250.4 85.0279 257.7 95.9279C271.8 117.228 290.5 137.228 319.6 162.428C338.4 178.628 356.6 196.328 365.7 207.028C393.1 239.728 411.2 281.528 417.6 327.228C418.2 331.928 418.2 331.928 415.3 331.928C413.7 331.928 409.1 330.828 405 329.428C369.5 317.228 320 308.328 272.4 305.428L261.1 304.728V308.328C261.1 310.528 261.6 311.928 262.4 311.928C263 311.928 271 312.428 280.1 312.928C325.9 315.728 363.1 322.328 403.1 334.728L418.6 339.428L419.2 345.428C420.4 356.528 420.2 368.928 418.9 368.928C418.2 368.928 412.2 367.128 405.6 364.928C369.9 352.928 329.4 344.328 295.6 341.428C291.8 341.128 287 340.628 285.1 340.328C281.7 339.928 281.8 340.028 287.7 343.828C293.3 347.428 294.7 347.928 304.2 348.928C339.7 352.728 376.9 360.728 407.7 371.028L419.8 375.128L420.5 396.728C421.3 424.128 423.3 447.728 427.2 474.428C432.8 513.728 439.4 542.728 450.3 575.428L456.2 593.428L454.7 599.928C451.2 614.528 437.8 634.928 423.4 647.728C416.9 653.428 400.2 665.828 398.9 665.928C398.5 665.928 398 665.128 397.7 664.228C397.1 662.028 392.8 631.728 390.3 612.028C389.3 604.028 388 597.428 387.4 597.228C386.8 597.028 383.6 601.928 380.2 608.028C367 631.828 354.1 649.028 335.1 667.928C309.3 693.728 276.1 715.828 236.9 733.028C232 735.128 227.9 736.928 227.8 736.828C227.7 736.828 223.8 735.028 219.1 732.828ZM383.1 293.428C383.1 290.428 375.8 272.328 370 260.928C358.9 239.028 348.8 225.828 325 202.428L310.9 188.428L320.1 199.928C342.8 228.328 358.6 259.128 363.2 284.428C364.3 290.228 364.8 291.028 367 291.528C368.4 291.928 371.9 292.728 374.6 293.428C381.4 295.228 383.1 295.228 383.1 293.428Z" fill="#102B4A"/>
<path d="M225 689.328C225 688.828 224.9 668.028 225 643.028V597.628L219.3 603.228C214.7 607.828 212.9 608.928 210.3 608.928C207.3 608.928 207.1 608.728 207.1 605.628C207.1 602.728 208.6 600.828 218.9 590.628L230.8 578.928H236C240.3 578.928 241.6 578.528 243.2 576.728C245.4 574.028 245.5 572.928 243.9 569.428C243.1 567.628 242 566.928 239.9 566.928C238.4 566.928 237.1 567.428 237.1 567.928C237.1 568.528 235.1 568.928 232.7 568.928C226.8 568.928 225.7 567.428 226.6 560.428C227.1 555.928 227.6 554.928 229.1 554.928C230.8 554.928 230.8 554.328 227.9 546.228L224.9 537.428V507.428C224.9 486.728 224.6 477.228 223.8 476.728C223 476.228 223.1 473.928 223.9 468.228C224.6 463.928 225.1 454.128 225.1 446.328C225.1 436.728 225.5 431.928 226.3 431.128C227 430.428 229.2 429.928 231.3 429.928C235 429.928 235.1 429.828 235.1 426.128C235.1 422.028 237.4 418.928 240.4 418.928C241.5 418.928 242.1 418.128 242.1 416.728C242.1 415.328 244.7 411.528 248.7 407.228C254.9 400.328 255.2 399.828 254.5 396.228C254.1 394.128 253.5 392.028 253.1 391.428C251.7 389.528 247 369.828 247.3 367.128C247.6 364.728 248.1 364.428 252 364.128C257.5 363.728 262.9 367.128 266.2 373.128C268.5 377.228 268.7 377.328 273.2 377.028C276.9 376.828 279.3 377.528 284.9 380.328C297.9 386.828 319.7 394.828 338.1 399.828C344.7 401.628 371.7 406.928 374.2 406.928C374.7 406.928 375.1 408.028 375.1 409.428C375.1 411.228 375.6 411.928 377 411.928C379.8 411.928 380.5 420.928 379.7 447.428C379.1 468.828 377.7 479.328 375.1 482.528C374.2 483.528 374.2 483.928 375 483.928C378 483.928 374.6 508.628 368.5 531.928C366.5 539.328 364.3 545.928 363.5 546.528C362.7 547.128 362.1 548.828 362.1 550.228C362.1 553.628 359.3 560.828 356.9 563.528C355.9 564.628 355.1 566.928 355.1 568.628C355.1 572.428 345.2 591.828 336.4 605.428C328.7 617.228 326.4 619.928 323.9 619.928C322.6 619.928 322.1 620.728 322.1 622.528C322.1 626.128 304.9 643.928 301.4 643.928C299.6 643.928 299.1 644.528 299.1 646.328C299.1 649.328 289.9 656.928 270.8 669.628C251.7 682.328 239.2 688.628 231.3 689.528C227.9 689.828 225.1 689.828 225 689.328ZM267.9 639.328C271 637.228 270.9 632.928 267.7 632.928C265.4 632.928 264.1 635.028 264.1 639.228C264.1 641.328 265 641.428 267.9 639.328ZM318.1 582.428C318.1 581.028 317.5 579.928 316.7 579.928C315.8 579.928 315.5 580.728 315.9 582.428C316.1 583.828 316.7 584.928 317.2 584.928C317.7 584.928 318.1 583.828 318.1 582.428ZM274.3 527.228C274.8 522.828 273.2 518.928 271 518.928C267.2 518.928 263.1 520.328 263.1 521.528C263.1 522.328 263.7 524.728 264.3 526.928C265.5 530.728 265.8 530.928 269.7 530.928C273.8 530.928 273.9 530.828 274.3 527.228ZM323.4 447.728C325.6 446.628 326.1 445.728 326.1 442.728C326.1 439.628 325.7 438.928 324.2 438.928C323.1 438.928 321.9 438.528 321.6 437.928C321.3 437.428 319.7 436.928 318 436.928C315.8 436.928 315.1 437.428 315.1 438.928C315.1 440.028 314.7 440.928 314.1 440.928C313.6 440.928 313.1 441.828 313.1 442.928C313.1 444.028 313.8 444.928 314.6 444.928C315.4 444.928 316.1 445.828 316.1 446.928C316.1 449.328 319.2 449.628 323.4 447.728Z" fill="#102B4A"/>
<path d="M226.9 735.828C226 735.328 225.4 734.328 225.7 733.628C225.9 732.928 225.5 731.528 224.7 730.428C223.5 728.828 223.1 728.728 221.7 729.828C220.3 731.028 220.2 730.828 220.5 728.028C220.8 725.628 220.5 724.928 219.5 725.328C218.7 725.628 218.1 725.428 218.1 724.828C218.1 724.228 217.6 724.128 217 724.528C216.3 724.928 216 724.628 216.3 723.828C216.8 722.428 218 722.328 221.1 723.028C223.3 723.628 227.1 729.428 227.1 732.128C227.1 733.428 227.6 735.028 228.3 735.728C229.7 737.128 229.2 737.228 226.9 735.828Z" fill="#133358"/>
<path d="M190.1 718.328C179.4 712.728 176.7 710.928 178.9 710.928C179.6 710.928 180.1 710.228 180.1 709.428C180.1 708.628 179.7 707.928 179.3 707.928C178.8 707.928 178.4 707.328 178.4 706.628C178.4 705.728 180 705.228 182.8 705.028C185.3 704.928 187.1 705.328 187.1 705.928C187.1 706.428 187.8 706.928 188.6 706.928C189.4 706.928 190.1 706.528 190.1 705.928C190.1 704.128 195.4 710.328 195.6 712.328C195.7 713.528 195.9 714.828 196 715.428C196 715.928 196.6 715.828 197.2 715.228C198.8 713.628 201.1 714.728 201.1 717.128C201.1 718.128 200.7 718.828 200.3 718.528C199.9 718.328 198.9 718.428 198.1 718.928C197 719.628 197.2 720.228 199.2 721.828C200.5 722.928 201.4 723.828 201.1 723.828C200.8 723.928 195.9 721.428 190.1 718.328Z" fill="#133358"/>
<path d="M215.1 715.028C215.1 714.528 213.9 713.928 212.4 713.728C210.6 713.528 209.2 712.528 208.6 711.128C207.7 709.028 204.6 707.228 202.8 707.728C202.3 707.828 202.2 707.528 202.5 707.028C202.8 706.528 204.1 706.228 205.4 706.328C207.9 706.628 216.2 710.828 214.4 710.928C213.7 710.928 213.1 711.428 213.1 712.028C213.1 712.528 213.6 712.728 214.1 712.428C214.7 712.128 215.1 712.228 215.1 712.728C215.1 713.228 216.1 714.128 217.4 714.728L219.6 715.828H217.4C216.1 715.928 215.1 715.528 215.1 715.028Z" fill="#133358"/>
<path d="M217.6 708.928C215.4 706.628 215.1 705.928 216.4 705.928C219 705.928 225.2 709.228 224.8 710.328C224.1 712.628 220.5 711.928 217.6 708.928Z" fill="#133358"/>
<path d="M169.7 706.328C166.5 704.428 159.5 699.628 154.2 695.728C119.4 670.028 91.9 638.728 74.9 605.328C72.5 600.728 70 596.928 69.4 596.928C67.8 596.928 67.6 598.128 65.6 615.428C63.5 633.228 59 665.328 58.5 665.828C57.8 666.528 42.2 655.628 34.6 649.128C18.2 635.128 5.4 615.828 1.5 599.228L0 592.828L5.10001 578.128C11.6 559.528 16 543.628 20.5 523.428C29.8 481.228 36.1 426.728 36.1 388.828V375.128L46.9 371.628C78.1 361.228 110.9 354.128 145.9 349.928C159.5 348.328 162.8 347.628 166.6 345.328C175.2 340.328 173.9 340.128 153.6 342.428C119.9 346.328 89.6 352.628 58 362.428C48.3 365.428 39.4 367.928 38.2 367.928C36 367.928 36 367.928 36.7 356.228C37.1 349.728 37.4 343.328 37.5 342.028C37.6 339.828 38.6 339.228 48.1 336.228C90.8 322.828 132.3 315.528 184.4 312.428L195.1 311.728V308.228V304.628L183.9 305.328C136.4 308.228 85.4 317.628 49.7 329.928C46.4 331.028 42.5 331.928 41 331.928C38.4 331.928 38.2 331.628 38.6 329.228C38.9 327.628 40 321.028 41.1 314.428C47.4 277.528 62.8 243.028 87.1 211.728C95.7 200.728 117.2 179.228 135.1 164.028C154 147.928 179.6 122.028 189.3 109.328C198.1 97.7278 206.6 84.5278 213.9 70.8278L219.1 61.2278L217 59.3278C213.5 56.1278 211.1 50.3278 211.1 44.9278C211.1 41.1278 212.5 36.3278 217.2 24.6278C220.6 16.3278 224.2 7.42783 225.1 4.92783C226.2 2.22783 227.6 0.327831 228.7 0.127831C230.2 -0.172169 230.4 0.0278285 229.4 1.02783C228.7 1.72783 228.1 4.52783 228.1 7.22783C228.1 10.0278 227.7 11.8278 227.1 11.4278C226.6 11.1278 226.5 10.1278 226.8 9.22783C227.2 8.22783 227 7.82783 226.1 8.12783C224.9 8.52783 220.6 18.9278 221.7 18.9278C221.9 18.9278 223.1 17.9278 224.2 16.8278C225.7 15.3278 226.5 15.0278 227.1 15.9278C228.2 17.7278 227.5 21.7278 225.7 23.5278C223.8 25.4278 223.6 26.3278 225.4 25.6278C226.2 25.3278 226.8 26.1278 227 27.8278C227.5 31.1278 227.5 65.4278 227.2 107.728C226.9 139.028 226.9 140.028 225 139.428C223.4 138.928 223.1 139.328 223.1 142.128C223.1 144.628 223.4 145.028 224.1 143.928C224.9 142.728 225.1 142.928 225.1 144.728C225.1 146.028 224.7 146.728 224.1 146.428C223.6 146.128 223.1 146.428 223.1 147.128C223.1 148.028 222.8 148.028 222.1 146.928C221.3 145.628 221.1 145.728 221.1 147.228C221.1 148.228 220.8 148.828 220.3 148.628C219.6 148.128 216.5 150.928 216.7 151.928C217.2 154.028 215.7 154.728 213.6 153.328C211.8 152.128 211.2 152.128 210.9 153.128C210.2 154.828 211 156.928 212.2 156.928C212.8 156.928 212.9 156.328 212.5 155.728C212.1 155.028 213 155.528 214.4 156.828C215.9 158.228 217 160.028 217 160.828C216.9 162.128 216.8 162.028 216.4 160.628C216.2 159.728 215.6 159.128 215.1 159.428C214.7 159.728 214.5 160.828 214.8 161.928C215.1 163.028 215.7 163.628 216.2 163.328C216.7 163.028 217.1 163.928 217.1 165.328C217.1 168.628 218.7 169.428 219.7 166.628C220.3 164.828 220.5 165.128 220.8 168.628C221.2 172.228 219.5 176.728 209.7 199.728C203.3 214.528 198.1 227.028 198.1 227.428C198.1 227.828 200.5 230.528 203.5 233.428C206.4 236.328 210.2 241.328 211.7 244.628L214.6 250.428L214.9 292.628C215.2 330.528 215 335.128 213.5 337.428C211.4 340.628 195.6 353.428 186.6 359.228C160 376.228 123.9 388.328 81.6 394.228L65.6 396.528L64.8 401.928C63.2 412.828 63.6 457.528 65.4 473.628C72.8 539.428 90.5 586.328 123.9 628.428C131.4 637.828 151.8 658.028 161.4 665.428C167.2 669.928 169.1 672.028 169.1 673.728C169.1 675.528 168.7 676.028 167.6 675.528C166.7 675.228 165.8 675.628 165.5 676.428C165.1 677.228 164.5 677.728 164.1 677.428C163.6 677.128 162.7 677.428 161.9 678.128C158.1 681.728 157.4 682.028 155.8 680.428C154.9 679.628 153.6 679.228 152.8 679.528C151.3 680.028 151.2 680.928 152.4 684.228C152.8 685.128 153.3 686.628 153.6 687.528C153.9 688.528 154.7 688.828 156.1 688.428C157.7 687.928 158 688.128 157.4 689.528C157 690.728 157.1 691.028 157.9 690.528C158.6 690.128 159.1 690.228 159.1 690.828C159.1 691.428 159.7 691.628 160.5 691.328C161.5 690.928 161.7 691.628 161.4 694.428C161.1 697.028 161.4 697.928 162.2 697.328C163 696.828 163.1 697.028 162.6 697.928C161.7 699.328 163.7 701.228 171.4 706.028C175.4 708.628 176.9 709.928 175.9 709.928C175.7 709.928 173 708.328 169.7 706.328ZM84 293.128L91.4 291.428L93.3 283.428C99.7 255.728 114.4 227.028 134.8 202.128C145.8 188.628 145.2 188.728 131.2 202.428C108 225.128 95.2 242.128 84.6 264.128C80.4 273.028 73.1 292.128 73.1 294.528C73.1 295.328 76.6 294.828 84 293.128Z" fill="#133358"/>
<path d="M219.6 705.928L213.6 703.028L217.3 702.928C221.6 702.928 228.1 705.728 228.1 707.628C228.1 709.528 226.4 709.128 219.6 705.928Z" fill="#133358"/>
<path d="M190.1 693.928C190.1 693.228 189.8 692.828 189.5 693.228C189.1 693.528 188.2 693.128 187.4 692.328C186.6 691.528 185.6 691.128 185.3 691.328C184.9 691.528 183 690.528 181.1 688.928L177.7 686.128L180.7 686.428L183.6 686.828L181.2 684.828L178.9 682.928H182.4C187.4 682.928 195.1 687.628 195.1 690.728C195.1 692.228 194.7 692.828 193.9 692.328C193.3 691.928 192.2 692.428 191.4 693.428C190.6 694.728 190.1 694.828 190.1 693.928Z" fill="#133358"/>
<path d="M206.6 682.128C190.4 672.928 184.8 669.228 169.9 658.128C161.5 651.928 157.1 648.028 157.1 646.728C157.1 645.728 156.4 644.928 155.4 644.928C154.4 644.928 149.7 641.028 144.9 636.228C137.4 628.728 136.1 627.028 136.1 624.228C136.1 621.428 135.7 620.928 133.7 620.928C131.9 620.928 130.1 619.228 126.3 614.228C114.7 598.428 103.1 577.328 103.1 571.728C103.1 569.328 102.3 567.528 100.7 566.028C98.8 564.228 98.1 562.228 97.6 557.328C97 552.228 96.5 550.928 95.1 550.928C93.8 550.928 92.8 548.728 90.8 542.228C83.4 518.028 78.7 489.528 77 459.228C75.9 439.228 76.5 415.928 78.1 415.928C78.6 415.928 79.1 414.028 79.3 411.728L79.6 407.628L92.1 405.328C109.6 402.128 124.7 398.328 137.6 393.928C143.7 391.828 151.2 389.828 154.4 389.428C158.3 388.928 160.1 388.228 160.1 387.328C160.1 386.528 165 383.528 171.4 380.528C177.5 377.528 186.7 372.328 191.8 369.028C199.8 363.728 201.6 362.928 205.7 362.928H210.4L209.8 367.728C209.5 370.328 207.4 378.728 205.2 386.328C202.6 395.528 201.5 400.828 202.1 401.828C202.5 402.728 204.5 405.028 206.5 406.828C209.7 409.928 210.1 410.828 210.1 415.628C210.1 420.228 210.4 420.928 212.1 420.928C213.2 420.928 214.1 421.628 214.1 422.428C214.1 423.528 215.3 423.928 218.5 423.928C222.6 423.928 223.3 424.328 226.7 428.428C229.4 431.828 230.1 433.228 229.3 434.228C228.6 435.028 228.1 442.128 227.9 451.728C227.6 466.628 227.7 467.928 229.4 467.928C232.3 467.928 231.1 471.028 227.6 472.328C226.2 472.828 226 473.228 226.9 473.828C227.9 474.428 228.2 477.028 228 482.828C227.9 489.128 228.2 491.328 229.5 492.728C231.5 495.028 231.7 498.128 229.7 497.328C228.6 496.928 228.4 499.528 228.4 511.828C228.3 524.028 228.6 526.928 229.7 526.928C230.5 526.928 231.1 527.628 231.1 528.428C231.1 529.228 230.2 529.928 229.1 529.928C228 529.928 227.1 530.328 227.1 530.828C227.1 531.328 228.9 536.928 231.1 543.328C234.9 554.428 236.1 560.928 234.2 560.928C233.7 560.928 233.1 560.228 232.7 559.428C232.4 558.628 231.7 557.928 231.2 557.928C230.6 557.928 230.4 558.628 230.7 559.428C231.1 560.228 230.8 561.628 230.1 562.328C229.2 563.528 229.5 564.128 231.4 565.428C233.5 566.728 234 568.128 234.6 573.628L235.3 580.228L222.4 593.328C215.4 600.528 213.5 602.628 218.3 597.928C223.1 593.328 227.3 589.828 227.6 590.128C228.3 590.828 228.3 624.728 227.6 625.928C227.2 626.528 227.9 626.928 229 626.928C230.4 626.928 231.1 627.528 231.1 628.928C231.1 630.328 230.4 630.928 229 630.928C227.9 630.928 227.3 631.328 227.6 631.928C228.2 632.828 228.4 679.928 227.8 684.428C227 691.128 221.3 690.528 206.6 682.128ZM196.9 623.628C197.6 621.828 198.1 619.128 198.1 617.728C198.1 615.528 197.6 615.128 194.6 614.728C192.4 614.528 190.6 614.828 189.9 615.628C189.3 616.328 188.2 616.928 187.5 616.928C186.5 616.928 186.1 618.128 186.1 620.828C186.1 624.228 186.4 624.728 189.4 625.728C194.7 627.428 195.6 627.128 196.9 623.628ZM140.6 586.228C140.2 584.628 139.8 583.228 139.6 583.028C138.9 582.328 134.1 583.928 134.1 584.828C134.1 586.528 137.2 588.928 139.3 588.928C141 588.928 141.2 588.528 140.6 586.228ZM182 539.328C184.6 538.828 185.1 538.228 185.1 535.828C185.1 534.328 184.4 532.428 183.6 531.528C182.8 530.728 182.1 529.628 182.1 529.028C182.1 527.728 181.5 527.728 177.3 528.528C174 529.228 172.8 532.128 173.8 537.228C174.4 540.128 175.9 540.528 182 539.328ZM208.9 479.228C209.1 476.828 208.7 475.828 207.1 474.928C204 473.328 202.4 475.028 202.9 479.428C203.3 482.628 203.6 483.028 206 482.728C208.1 482.528 208.7 481.828 208.9 479.228ZM118.1 475.428C118.1 472.628 118.5 471.928 120.1 471.928C121.6 471.928 122.1 471.228 122.1 469.528C122.1 468.128 122.6 466.728 123.1 466.428C124.7 465.428 124.3 461.928 122.6 461.928C121.7 461.928 120.8 461.228 120.5 460.428C120.1 459.528 118.6 458.928 116.6 458.928C113.6 458.928 113.3 459.228 112.6 462.528C112.1 465.428 112.4 466.628 114 468.328C115.4 469.828 116.1 471.928 116.1 474.728C116.1 477.028 116.6 478.928 117.1 478.928C117.7 478.928 118.1 477.328 118.1 475.428Z" fill="#133358"/>
<path d="M230.1 684.828C230.8 683.728 231.5 682.928 231.7 683.228C232.4 683.928 231 686.928 230 686.928C229.4 686.928 229.5 686.028 230.1 684.828Z" fill="#133358"/>
<path d="M225.1 708.728C225 708.528 224.9 702.928 224.7 696.228C224.4 684.128 225 682.028 227.5 685.428C228.4 686.728 231.4 683.228 244.6 664.928C261.9 641.128 263.2 638.128 257.6 636.828C256 636.428 242.5 633.528 227.7 630.328C203.3 625.128 200.8 624.728 199.9 626.228C198.3 629.128 197 628.128 197.3 624.328C197.6 620.228 200.5 617.428 202 619.728C202.8 621.128 259.9 634.228 261.3 633.328C262.8 632.328 262.1 630.028 253.2 609.328C248.4 597.828 243.9 587.128 243.4 585.428C242.6 582.828 241.9 582.428 238.3 582.128C234.7 581.828 233.7 582.328 229.8 585.828C226.5 588.828 224.9 589.728 223.2 589.228C221.1 588.728 221.3 588.328 226.7 582.828C231.1 578.328 232.1 576.828 230.9 576.428C230.1 576.128 224.3 576.528 218.2 577.328C205.3 579.128 205.1 579.228 205.1 578.128C205.1 576.328 218.3 572.928 225.7 572.928C227.4 572.928 229.4 572.228 230.1 571.528C231.1 570.328 229.4 568.828 220.2 562.728C209.8 555.828 207 552.928 210.7 552.928C211.6 552.928 216.8 555.828 222.2 559.428C227.7 563.028 232.7 565.928 233.2 565.928C234.9 565.928 233.8 561.928 227.7 544.928C222.4 530.028 221 523.928 223.1 523.928C223.6 523.928 224.4 524.728 224.9 525.628C225.8 527.128 226.9 527.128 241.3 525.628C261.8 523.428 262.2 523.228 257.4 518.728C252.9 514.528 213.3 484.928 212.2 484.928C211.7 484.928 211 485.728 210.8 486.728C210.5 487.628 210.3 486.628 210.4 484.428C210.5 481.928 211.1 480.428 211.9 480.428C212.6 480.428 223.3 488.128 235.7 497.428C260.5 516.228 262.7 517.728 263.7 516.628C264.1 516.328 260.6 505.128 256 491.928C246.4 464.128 248.4 466.028 233.1 470.628C228.1 472.028 223.8 473.028 223.5 472.628C221.8 471.028 224.5 469.028 229.8 467.828C233 467.128 236.1 466.228 236.6 465.928C237.2 465.528 239.1 464.828 240.9 464.428C242.7 464.028 244.5 463.128 244.8 462.328C245.1 461.628 243.2 454.728 240.6 446.928C236.1 433.428 235.8 432.928 233.1 432.928C231.6 432.928 229.8 433.628 229.1 434.428C228.1 435.628 227.5 435.728 226.5 434.828C225.3 433.828 225.1 411.328 225.3 291.928C225.5 213.928 226 149.728 226.4 149.328C226.8 148.828 227.9 148.928 228.7 149.428C230 150.328 253.9 205.128 260.7 222.828L263.2 229.228L257.3 235.328C244.5 248.528 244.1 250.428 244.1 296.128C244.1 326.628 244.3 332.328 245.6 334.328C248.2 338.228 262.2 349.528 272.7 356.128C301.2 374.028 338.4 386.328 380.4 391.828L393.6 393.528L394.4 398.428C395.9 406.628 395.8 464.028 394.3 476.428C389 521.528 380.3 553.628 364.7 585.428C345.3 624.928 318.9 655.228 281.6 680.528C263.2 693.028 233.2 708.928 228 708.928C226.4 708.928 225.1 708.828 225.1 708.728ZM267.8 666.628C281.8 657.328 296.1 646.328 296.1 644.928C296.1 644.028 280 640.928 275.6 640.928C274 640.928 271.7 641.628 270.7 642.428C269.6 643.228 267.7 643.928 266.5 643.928C265.2 643.928 263.6 645.028 262.5 646.728C261.5 648.228 254.9 657.328 247.7 666.928C240.5 676.528 234.4 684.828 234.2 685.328C233.4 687.128 254.7 675.328 267.8 666.628ZM309.5 632.028L318.4 623.028L318.2 611.228C317.9 588.328 316.8 584.728 312.1 590.728C310.9 592.228 303.3 600.628 295.2 609.428C271.6 635.028 272.6 633.828 274.2 635.428C275.3 636.528 293.5 640.428 299.1 640.828C300 640.928 304.6 636.928 309.5 632.028ZM279.9 620.428C284.5 615.228 293.9 605.128 300.8 597.928C307.9 590.528 313 584.428 312.5 584.028C312 583.528 306.7 582.628 300.6 582.028C294.6 581.328 280.5 579.728 269.3 578.328L249 575.828L247.1 578.128C246 579.428 245.3 580.928 245.5 581.428C245.9 582.328 262.9 622.628 265.1 627.728C265.8 629.228 266.9 629.928 268.8 629.928C271.1 629.928 273.2 628.128 279.9 620.428ZM333 603.028C336.8 597.228 342.7 587.028 346.1 580.428C351.8 569.228 352.1 568.428 350.1 568.128C348.2 567.828 339.2 572.228 326.6 579.628L321.6 582.528L321.3 590.528C321.1 594.828 321.3 602.628 321.6 607.728C322.3 616.828 322.4 617.028 324.2 615.328C325.2 614.428 329.2 608.828 333 603.028ZM312.1 578.928C312.1 577.928 297.8 560.328 283.3 543.728L274.9 533.928H270.2H265.4L255.9 549.628L246.3 565.328L247.9 568.728C248.8 570.528 250.4 572.228 251.6 572.428C253.3 572.728 307.1 579.528 310.9 579.828C311.5 579.928 312.1 579.528 312.1 578.928ZM335.5 570.428C338 569.028 340.7 567.928 341.6 567.928C342.5 567.928 344.5 567.028 345.9 565.828C347.4 564.728 350.1 562.828 352 561.628C354.2 560.228 356 557.828 357.2 554.728L359 550.128L352.8 532.528C348.6 520.728 346.2 515.028 345.3 515.128C344.5 515.328 342.9 518.328 341.6 521.928C340.4 525.528 335.5 539.328 330.7 552.528C326 565.828 322.1 577.028 322.1 577.328C322.1 577.728 324.1 576.828 326.6 575.428C329.1 574.028 333.1 571.828 335.5 570.428ZM319.5 572.728C320.4 570.328 325.8 555.428 331.5 539.428C341.4 511.928 341.8 510.428 339.8 510.128C338.7 509.928 336.1 510.228 334.2 510.728C332.2 511.328 318.8 514.628 304.4 518.028L278.3 524.328L277.6 527.628C277.1 530.628 277.6 531.628 285.2 540.128C289.7 545.228 298.6 555.628 304.9 563.228C311.2 570.728 316.7 576.928 317.1 576.928C317.6 576.928 318.6 575.028 319.5 572.728ZM252.6 547.928C264.7 527.728 264.7 527.428 251.8 528.428C241 529.228 229.2 530.728 228 531.428C227.2 532.028 236.6 560.428 238.4 562.728C241 566.028 243 563.828 252.6 547.928ZM365.4 528.928C368.9 515.928 373.1 494.228 373.1 489.328C373.1 484.628 369.2 486.628 358.5 496.528C352.8 501.828 348.1 506.628 348.1 507.228C348.1 509.828 360.5 543.928 361.1 543.228C361.5 542.828 363.5 536.328 365.4 528.928ZM308.6 513.028C321.8 509.728 334.5 506.728 336.9 506.328C339.2 506.028 341.4 505.328 341.7 504.828C342.2 504.028 325.6 460.728 322.5 454.728C321.6 452.928 320.2 451.928 318.8 451.928C316.9 451.928 313.1 457.428 296.3 484.528C284 504.228 276.2 517.728 276.5 518.628C277.3 520.728 280.2 520.228 308.6 513.028ZM275.4 510.928C300.3 471.228 313.1 450.228 313.1 449.128C313.1 448.128 312.1 447.828 309.4 448.128C304.9 448.728 253.1 464.528 251.9 465.728C251.4 466.228 251.8 468.528 252.7 471.028C253.6 473.428 257.2 483.928 260.7 494.328C264.3 504.728 267.7 513.928 268.3 514.628C270.1 516.928 272.4 515.728 275.4 510.928ZM356.5 493.528C361.5 488.928 367.6 483.328 370 481.028C372.8 478.428 374.1 476.528 373.5 475.928C373 475.428 367.8 472.328 362.1 469.128C356.3 465.928 346.5 460.228 340.2 456.528C329.2 450.128 325.3 448.828 325.9 452.028C326.7 455.928 345.6 501.928 346.4 501.928C346.9 501.928 351.5 498.128 356.5 493.528ZM375.4 468.928C376.5 463.628 377.4 428.628 376.7 421.728C376.1 416.128 375.6 414.928 374.1 414.928C373.1 414.928 362.7 420.428 351 427.228C329.7 439.428 329.6 439.528 329.6 442.928C329.6 446.328 329.7 446.328 351.6 459.028C363.7 466.028 373.9 471.828 374.2 471.828C374.6 471.928 375.1 470.628 375.4 468.928ZM282.6 451.928C296.8 447.528 308.9 443.528 309.4 443.028C310 442.428 306.5 440.928 300.5 439.028C236.7 419.728 242.4 421.128 239.8 423.828L237.6 425.928L243.5 443.528L249.3 461.128L253 460.528C255 460.228 268.3 456.328 282.6 451.928ZM312.1 437.028C312.1 434.828 270.7 384.928 268.9 384.928C268.4 384.928 265.6 386.728 262.7 389.028L257.4 393.128L258.4 397.528C259.4 401.928 259.4 402.028 255 406.728C246.9 415.328 244.7 417.928 245.2 418.428C245.5 418.728 258.1 422.528 273.2 427.028C288.3 431.528 302.4 435.728 304.6 436.428C309.5 438.028 312.1 438.228 312.1 437.028ZM343.7 427.128C368.3 413.428 371.1 411.828 371.7 410.828C372 410.328 371.8 409.928 371.2 409.928C368.7 409.928 341.8 404.628 335.1 402.828C316.6 397.828 299.3 391.528 283.8 384.228C270.7 377.928 269.9 379.128 279.7 390.528C283.9 395.428 293.6 407.228 301.3 416.728L315.2 433.928H319.6C322 433.928 324.3 434.428 324.6 434.928C325.8 436.828 327.8 435.928 343.7 427.128ZM260.6 386.028C262.4 384.428 264.5 382.928 265.3 382.728C267.4 381.928 261.9 372.928 257.3 369.528C250.6 364.728 249.8 366.128 252.7 377.128C256.4 391.028 255.7 390.328 260.6 386.028Z" fill="#C99C3F"/>
<path d="M218.1 675.228C212 663.028 211.9 662.928 214.1 662.928C215.6 662.928 217.1 665.028 220.1 670.928C222.3 675.328 224.1 679.528 224.1 680.428C224.1 683.928 221.3 681.428 218.1 675.228Z" fill="#C99C3F"/>
<path d="M135.1 608.428C135.1 602.628 135.3 601.928 137.1 601.928C138.9 601.928 139.1 602.628 139.1 608.428C139.1 614.228 138.9 614.928 137.1 614.928C135.3 614.928 135.1 614.228 135.1 608.428Z" fill="#C99C3F"/>
<path d="M197.4 548.128C192.3 545.028 188.2 541.928 188.1 541.228C188.1 538.628 191 539.528 198.9 544.328C205.3 548.228 207.1 549.828 207.1 551.628C207.1 552.928 207 553.928 206.9 553.928C206.7 553.828 202.5 551.328 197.4 548.128Z" fill="#C99C3F"/>
<path d="M109.2 492.728C109.3 491.428 110 487.528 111 483.928L112.6 477.428L116.1 477.728C121.4 478.128 122.1 478.628 122.1 481.928C122.1 483.928 121.6 484.928 120.6 484.928C119.8 484.928 119.1 484.228 119.1 483.428C119.1 482.628 118.3 481.928 117.2 481.928C115.7 481.928 115.1 483.128 114.1 488.428C113.1 493.728 112.5 494.928 111 494.928C109.7 494.928 109.1 494.228 109.2 492.728Z" fill="#C99C3F"/>
<path d="M110.6 470.928C108.9 469.028 107.8 468.728 102.4 469.128C97 469.428 96.1 469.228 96.1 467.828C96.1 466.128 99.8 464.928 105.1 464.928C106.7 464.928 108.1 464.228 108.5 463.328C109 462.028 109.4 462.128 111.2 463.728C112.7 465.228 113.2 466.628 112.9 469.428L112.6 473.128L110.6 470.928Z" fill="#C99C3F"/>
<path d="M197.1 426.528C197.1 424.628 198.1 423.728 202 422.028C204.7 420.928 207.2 419.428 207.5 418.728C208 417.728 208.2 417.728 208.7 418.728C209 419.328 210.6 419.928 212.2 419.928C214.9 419.928 215.1 420.228 215.1 423.428C215.1 426.228 214.7 426.928 213.1 426.928C212 426.928 211.1 426.228 211.1 425.428C211.1 423.328 207.3 423.528 203.6 425.728C198.2 429.028 197.1 429.128 197.1 426.528Z" fill="#C99C3F"/>
<path d="M409.6 375.728C383.2 365.828 337.4 355.728 301.2 351.928C290.8 350.828 290.7 350.728 281.4 344.728C276.3 341.428 272.1 338.228 272.1 337.628C272.1 336.228 291.3 337.328 311.7 339.928C343.9 344.028 371.6 350.028 400.6 359.328C422.1 366.128 420.1 364.828 420.1 372.428C420.1 377.028 419.7 378.928 418.9 378.828C418.2 378.828 414 377.428 409.6 375.728Z" fill="#C99C3F"/>
<path d="M401.6 338.228C361 325.428 323.7 318.828 277.1 315.928C268 315.428 260 314.928 259.4 314.928C258.5 314.928 258.1 312.928 258.1 308.328V301.628L272.4 302.328C319.7 304.628 364.8 312.628 408.7 326.528L417.8 329.428L418.5 336.328C418.9 340.128 419 343.328 418.9 343.428C418.7 343.528 411 341.128 401.6 338.228Z" fill="#C99C3F"/>
<path d="M375.6 297.328C370.1 296.028 364.7 294.728 363.5 294.428C361.9 294.028 361.2 292.728 360.2 287.428C357.3 271.628 348 248.928 337.1 230.928C331 220.828 318.4 204.028 307 190.928C294.1 176.028 280.1 158.328 280.1 157.028C280.1 156.328 280.5 155.928 281 156.128C282.5 156.628 312.4 184.228 327.9 199.428C352.2 223.228 362.3 236.428 374 259.928C380.4 272.928 386.2 288.128 387.6 296.228C388.5 300.628 389.1 300.528 375.6 297.328Z" fill="#C99C3F"/>
<path d="M166.1 166.628C166.1 163.928 172.8 156.928 175.5 156.928C176.8 156.928 176.2 158.328 172.5 162.928C167.4 169.428 166.1 170.228 166.1 166.628Z" fill="#C99C3F"/>
<path d="M211.1 701.628C165.8 678.728 134.2 651.928 108.9 614.928C83.6 578.128 69 534.528 62.4 476.628C60.6 460.428 60.2 409.928 61.8 398.928L62.6 393.528L78.6 391.228C120.9 385.328 157 373.228 183.6 356.228C192.7 350.428 208.4 337.628 210.5 334.428C212 332.128 212.2 327.728 211.9 292.628L211.6 253.428L208.7 247.528C206.9 243.928 203.4 239.228 199.6 235.628L193.3 229.628L195.1 224.528C196.1 221.728 202.3 206.828 208.8 191.428C215.4 176.028 222.1 160.128 223.7 156.228C226.7 148.628 228.2 147.428 230.2 151.128C231.3 153.228 231.3 153.328 229.8 152.028C228.2 150.728 228.1 160.428 228.1 293.528L228 436.428L224 431.728C220.8 428.028 219.2 426.928 217 426.928C215.3 426.928 214.1 427.428 214.1 428.228C214.1 428.828 212.7 437.928 211.1 448.328C209.4 458.728 208.1 468.028 208.1 469.028C208.1 472.528 211.6 473.228 218.8 471.028C222.5 469.928 226.1 469.328 226.8 469.828C228.9 470.928 226.9 472.228 218.9 474.828C215.1 476.128 212.1 477.528 212.1 478.028C212.1 478.628 213.8 480.628 215.9 482.628C217.9 484.628 218.6 485.528 217.4 484.528C215.6 483.028 215 483.028 213.2 484.128C212 484.828 211.1 485.928 211.1 486.628C211.1 487.628 223.9 523.428 225.8 527.928C226.2 528.728 226.5 529.928 226.6 530.428C226.6 531.028 227 531.928 227.4 532.628C227.8 533.228 227.6 535.028 227 536.628L225.9 539.428L224.6 535.928L223.4 532.428L217 532.628C207.4 532.928 189.1 535.128 188.6 536.028C187.9 537.028 190.6 539.628 194.2 541.428C195.8 542.328 197.1 543.228 197.1 543.528C197.1 543.728 196.3 543.528 195.3 543.028C194.3 542.528 192.9 542.428 192.2 542.828C191.5 543.328 189.6 543.228 188.1 542.628C186 541.828 184.9 541.828 183.8 542.728C182.3 544.028 182.6 547.028 185.9 566.828L187.6 577.128L199.5 577.028C206.4 576.928 211.1 577.228 210.7 577.728C210.4 578.228 205.2 579.228 199.1 579.928C188.6 581.128 188 581.328 188.4 583.328C188.7 584.528 189.7 591.128 190.7 598.128L192.4 610.828L195.5 611.528C198.5 612.128 199.2 611.628 211.2 599.028C222.7 587.028 226.1 584.528 227.5 586.728C227.8 587.228 221.9 593.628 214.5 601.028C200.9 614.528 199.4 617.028 202.5 620.228C203.7 621.328 203.6 621.728 202.1 622.728C198 625.328 198.7 628.028 208.5 647.728C217.4 665.428 217.8 666.628 215.5 666.128C213.4 665.728 211.7 662.928 204.3 647.828C196.3 631.028 195.5 629.928 193 629.928C191.5 629.928 189 629.428 187.6 628.928C185.1 628.028 183.8 628.628 174.2 635.028C157.8 646.128 157.9 644.028 172.8 655.128C179.8 660.328 188.8 666.628 192.7 669.128C203.4 675.928 222.1 686.328 222.7 685.628C223 685.328 222.6 683.828 221.7 682.128C220.5 679.828 220.4 678.828 221.4 677.528C222.5 676.028 223 676.528 225.3 681.228C227.7 686.128 227.9 687.528 227.8 697.428C227.7 703.628 227.2 708.428 226.6 708.628C226.1 708.728 219.1 705.628 211.1 701.628ZM170.2 633.328L183.2 624.728L182.9 620.628L182.6 616.528L163.1 604.228C152.4 597.528 142.6 592.028 141.4 592.028C139.3 591.928 139.1 592.428 138.9 598.728C138.8 602.428 138.8 609.728 139 614.928L139.3 624.428L147.9 633.228C152.7 638.028 156.7 641.928 156.9 641.928C157 641.928 163 638.028 170.2 633.328ZM133.1 590.728C132 589.728 131.1 588.028 131.1 586.928C131.1 584.728 130.2 584.128 117.1 575.928C107.2 569.628 106.1 569.228 106.1 571.028C106.1 574.428 120.4 599.128 129.4 611.428L134.6 618.328L134.9 605.528C135.1 593.628 135 592.528 133.1 590.728ZM187.3 612.228C188.7 610.628 188.6 609.028 186.5 596.628C185.3 589.028 184 582.528 183.8 582.228C183.5 582.028 176.9 582.728 169.1 583.828C161.3 585.028 153.3 585.928 151.2 585.928C149.2 585.928 146.7 586.528 145.7 587.228C144.1 588.328 145.4 589.328 156.9 596.328C164.1 600.528 173.2 606.228 177.3 608.928C181.3 611.628 184.9 613.828 185.2 613.928C185.5 613.928 186.5 613.128 187.3 612.228ZM165.3 580.628C174.5 579.328 182.3 578.028 182.7 577.628C183.3 577.028 179.7 549.028 178.5 544.728C177.3 540.528 174.1 543.428 159.4 561.728C151.2 572.028 144.1 581.028 143.7 581.728C142.7 583.428 145.5 583.228 165.3 580.628ZM133.4 577.328C133.2 575.728 132 565.428 130.6 554.428C129.2 543.428 128.1 534.328 128.1 534.228C128.1 534.028 127.3 533.928 126.3 533.928C124.5 533.928 101.1 558.028 101.1 559.728C101.1 560.228 101.9 561.328 102.9 562.328C106.1 565.128 131.6 580.828 132.6 580.528C133.2 580.328 133.5 578.928 133.4 577.328ZM156.6 559.028C163.8 550.028 170 542.128 170.5 541.528C171 540.728 170.8 539.128 170 537.328C168.6 534.428 168.3 534.428 150.8 531.528C140.3 529.828 132.6 529.028 132.1 529.528C131.1 530.528 137.1 576.528 138.6 578.828C139.6 580.528 138.2 581.928 156.6 559.028ZM118.3 534.928C123.7 529.128 126.1 525.628 126.1 523.928C126.1 522.528 124.5 513.128 122.6 503.028C120.7 493.028 119.1 483.828 119.1 482.728C119.1 481.028 118.6 480.728 116.1 481.128C112.8 481.628 112.2 480.728 112.8 476.428C113.1 474.328 112.8 472.928 111.7 472.028C110.8 471.328 110.1 470.128 110.1 469.328C110.1 468.628 109.4 467.628 108.6 467.228C107.3 466.428 107.3 465.828 108.7 462.228L110.4 458.028L100.9 444.728C95.7 437.428 89.5 428.628 87.2 425.228C84.9 421.728 82.4 418.928 81.7 418.928C79.8 418.928 78.9 433.828 79.7 452.428C80.2 462.628 80.8 467.928 81.5 467.928C82.1 467.928 85.5 467.428 89.1 466.828C96.2 465.728 103 466.428 101.4 468.028C100.8 468.628 97 469.528 93 470.028C82 471.328 81.1 471.628 81.1 474.228C81.1 475.428 82.2 483.628 83.6 492.528C87.2 516.928 95.9 550.928 97.5 546.928C97.8 546.128 99.6 537.828 101.5 528.428C106 506.528 109 492.828 109.8 490.928C110.1 490.128 110.3 489.128 110.3 488.728C109.9 486.928 111.2 488.128 112.1 490.428C112.8 492.228 111.5 499.828 106.6 521.828C103 537.828 100.1 551.928 100.1 553.128C100.1 554.928 101 554.228 105.4 549.428C108.2 546.128 114.1 539.628 118.3 534.928ZM170.8 529.228C171 528.628 168.8 525.428 165.9 522.228C163 518.928 156.1 511.228 150.6 504.928C125.3 476.128 121 471.928 121.2 476.228C121.2 476.828 123.3 488.028 125.9 500.928L130.6 524.428L149.1 527.528C169 530.928 170.2 531.028 170.8 529.228ZM210.4 529.328C215.8 528.928 220.4 528.228 220.7 527.728C221 527.228 218 517.628 213.9 506.328C207.7 488.928 206.3 485.928 204.7 486.128C203 486.428 194.7 502.828 187.2 521.028C184.9 526.528 184.9 526.628 186.7 528.828C188.4 530.928 189.2 531.028 194.6 530.528C197.9 530.228 205 529.628 210.4 529.328ZM178.9 524.928C181.2 524.928 181.9 524.128 183.5 520.128C184.6 517.528 188.8 508.128 192.9 499.228C201.2 481.128 201.6 478.428 195.8 477.428C194.1 477.128 178 474.828 160.1 472.428C132.8 468.728 127.4 468.228 126.2 469.428C125.1 470.528 126.5 472.528 135.3 482.128C147.6 495.528 166.4 516.928 170.6 522.228C172.3 524.328 174.2 525.728 174.9 525.428C175.7 525.128 177.5 524.928 178.9 524.928ZM201.3 471.528C203.8 469.228 204.2 467.628 207.6 446.928C209.5 434.728 211.3 424.328 211.7 423.828C212 423.328 210.8 422.928 209.1 422.928C206.3 422.928 206 422.628 206.4 420.728C206.9 418.628 205.5 417.628 192.3 410.528C184.2 406.128 173.4 400.128 168.4 397.228C163.3 394.328 158.8 391.928 158.3 391.928C157.9 391.928 156.5 394.028 155.2 396.728C154 399.328 146.6 413.328 138.8 427.928C122.4 458.528 122.7 457.828 124.5 458.528C125.3 458.828 142.6 450.928 163.1 440.928C189.6 428.028 200.7 423.128 201.4 423.828C202.2 424.628 202.1 425.328 201.1 426.328C199.6 427.628 142.6 455.528 132.3 459.928C129.4 461.228 127.2 462.728 127.4 463.328C127.6 463.928 136.6 465.628 148.2 467.228C159.4 468.728 174.7 470.828 182.1 471.828C199.3 474.228 198.1 474.228 201.3 471.528ZM136.3 424.728C145.5 407.528 152.9 393.328 152.7 393.228C152.5 393.028 146.4 394.928 139 397.328C125.6 401.828 105.2 406.828 91.1 409.028C87 409.728 83.2 410.528 82.7 411.028C82.3 411.428 88.9 421.728 97.6 433.828C112.4 454.628 113.5 455.928 116.4 455.928C119.6 455.928 119.8 455.528 136.3 424.728ZM202.2 408.328C199.4 405.328 197.1 402.328 197.1 401.828C197.1 401.328 198.9 394.728 201 387.128C207.3 365.328 207.2 365.928 205.5 365.928C204.6 365.928 199.8 368.628 194.8 372.028C189.7 375.328 180.5 380.528 174.4 383.528C168.2 386.528 163.1 389.228 163.1 389.628C163.1 390.528 204.9 413.928 206.4 413.928C206.9 413.928 205 411.428 202.2 408.328Z" fill="#E6B44A"/>
<path d="M208.1 554.928C205.6 553.328 203.6 551.628 203.6 551.228C203.6 550.828 203.2 549.828 202.8 549.228C201.3 546.728 204.5 547.928 210.8 552.028C214.3 554.328 217.1 556.228 217.1 556.428C217.1 556.528 215.9 556.428 214.5 556.128C212.6 555.828 212 556.028 212.5 556.828C213.5 558.328 213.3 558.228 208.1 554.928Z" fill="#E6B44A"/>
<path d="M36.1 372.128V365.228L56.4 359.128C82 351.228 96.9 347.728 119.6 343.928C149.4 338.928 187 335.328 184.6 337.628C183.1 339.128 173.1 346.228 168.9 348.728C166.1 350.528 161.7 351.428 148.9 352.928C128 355.428 112.4 358.128 93.7 362.428C76.4 366.528 54 372.828 44.5 376.428C40.8 377.828 37.5 378.928 37 378.928C36.5 378.928 36.1 375.828 36.1 372.128Z" fill="#E6B44A"/>
<path d="M37.8 336.728C38.1 333.228 38.6 330.128 39 329.728C40.7 328.028 77.9 317.428 96.1 313.528C121 308.228 157.1 303.528 183.9 302.328L198.1 301.628V308.128V314.728L187.4 315.428C135.2 318.528 98.4 324.928 54 338.428C45.9 340.928 38.9 342.928 38.3 342.928C37.7 342.928 37.5 340.628 37.8 336.728Z" fill="#E6B44A"/>
<path d="M68.5 298.228C68.7 297.228 69.9 292.828 71.1 288.428C76.9 267.428 88.9 244.328 103.9 225.428C111.6 215.628 130 197.028 146.6 182.128C154.3 175.228 164 166.228 168.2 162.128C172.4 158.028 176.4 154.828 177 155.028C178.8 155.628 175.3 159.928 173.1 159.928C170.9 159.928 169.7 161.528 169.6 164.628C169.6 166.028 163.3 174.428 153.1 186.628C144 197.428 134.5 209.128 131.9 212.528C114.9 234.828 102.1 261.428 96.3 286.428L94.4 294.428L82.5 297.128C68.2 300.428 67.8 300.428 68.5 298.228Z" fill="#E6B44A"/>
</svg>
